<svg width="80" height="80" viewBox="0 0 80 80" fill="none" xmlns="http://www.w3.org/2000/svg">
<circle cx="40" cy="40" r="40" fill="#1C1B1B"/>
<path d="M47.5004 33.9506C47.4217 33.938 47.3416 33.938 47.2629 33.9506C46.4168 33.9194 45.6167 33.5575 45.0347 32.9425C44.4527 32.3275 44.1354 31.5087 44.1509 30.6621C44.1665 29.8155 44.5137 29.0089 45.1179 28.4157C45.7221 27.8226 46.5349 27.4902 47.3816 27.4902C48.2283 27.4902 49.0412 27.8226 49.6454 28.4157C50.2496 29.0089 50.5968 29.8155 50.6123 30.6621C50.6279 31.5087 50.3106 32.3275 49.7286 32.9425C49.1466 33.5575 48.3465 33.9194 47.5004 33.9506V33.9506Z" stroke="#FF3596" stroke-width="1.5" stroke-linecap="round" stroke-linejoin="round"/>
<path d="M46.2133 43.0508C47.9098 43.3641 49.6622 43.0438 51.1383 42.1508C51.5356 41.9526 51.8697 41.6476 52.1033 41.2701C52.3369 40.8925 52.4606 40.4573 52.4606 40.0133C52.4606 39.5694 52.3369 39.1342 52.1033 38.7566C51.8697 38.379 51.5356 38.074 51.1383 37.8758C49.6488 36.9818 47.8828 36.666 46.1758 36.9883" stroke="#FF3596" stroke-width="1.5" stroke-linecap="round" stroke-linejoin="round"/>
<path d="M32.4621 33.9506C32.5408 33.938 32.6209 33.938 32.6996 33.9506C33.5457 33.9194 34.3458 33.5575 34.9278 32.9425C35.5098 32.3275 35.8271 31.5087 35.8116 30.6621C35.796 29.8155 35.4488 29.0089 34.8446 28.4157C34.2404 27.8226 33.4276 27.4902 32.5809 27.4902C31.7342 27.4902 30.9213 27.8226 30.3171 28.4157C29.7129 29.0089 29.3657 29.8155 29.3502 30.6621C29.3346 31.5087 29.6519 32.3275 30.2339 32.9425C30.8159 33.5575 31.616 33.9194 32.4621 33.9506V33.9506Z" stroke="#FF3596" stroke-width="1.5" stroke-linecap="round" stroke-linejoin="round"/>
<path d="M33.7532 43.0503C32.0567 43.3635 30.3043 43.0433 28.8282 42.1503C28.4309 41.9521 28.0967 41.6471 27.8632 41.2695C27.6296 40.892 27.5059 40.4568 27.5059 40.0128C27.5059 39.5688 27.6296 39.1336 27.8632 38.7561C28.0967 38.3785 28.4309 38.0735 28.8282 37.8753C30.3167 36.9822 32.0811 36.6664 33.787 36.9878" stroke="#FF3596" stroke-width="1.5" stroke-linecap="round" stroke-linejoin="round"/>
<path d="M40.0014 43.2884C39.9227 43.2759 39.8425 43.2759 39.7639 43.2884C38.9177 43.2573 38.1176 42.8953 37.5357 42.2804C36.9537 41.6654 36.6364 40.8465 36.6519 40C36.6675 39.1534 37.0147 38.3468 37.6189 37.7536C38.2231 37.1605 39.0359 36.8281 39.8826 36.8281C40.7293 36.8281 41.5422 37.1605 42.1464 37.7536C42.7505 38.3468 43.0978 39.1534 43.1133 40C43.1289 40.8465 42.8115 41.6654 42.2296 42.2804C41.6476 42.8953 40.8475 43.2573 40.0014 43.2884V43.2884Z" stroke="#FF3596" stroke-width="1.5" stroke-linecap="round" stroke-linejoin="round"/>
<path d="M36.3634 47.2262C35.9661 47.4244 35.6319 47.7294 35.3983 48.107C35.1647 48.4846 35.041 48.9198 35.041 49.3637C35.041 49.8077 35.1647 50.2429 35.3983 50.6205C35.6319 50.998 35.9661 51.303 36.3634 51.5012C37.4631 52.1578 38.72 52.5044 40.0009 52.5044C41.2817 52.5044 42.5386 52.1578 43.6384 51.5012C44.0356 51.303 44.3698 50.998 44.6034 50.6205C44.837 50.2429 44.9607 49.8077 44.9607 49.3637C44.9607 48.9198 44.837 48.4846 44.6034 48.107C44.3698 47.7294 44.0356 47.4244 43.6384 47.2262C42.5366 46.5756 41.2804 46.2324 40.0009 46.2324C38.7213 46.2324 37.4652 46.5756 36.3634 47.2262V47.2262Z" stroke="#FF3596" stroke-width="1.5" stroke-linecap="round" stroke-linejoin="round"/>
</svg>
