<svg width="80" height="80" viewBox="0 0 80 80" fill="none" xmlns="http://www.w3.org/2000/svg">
<circle cx="40" cy="40" r="40" fill="#1C1B1B"/>
<path d="M28.7617 39.0244V44.6369C28.7617 50.2494 31.0117 52.4994 36.6242 52.4994H43.3617C48.9742 52.4994 51.2242 50.2494 51.2242 44.6369V39.0244" stroke="#EA6E14" stroke-width="1.5" stroke-linecap="round" stroke-linejoin="round"/>
<path d="M39.9994 40C40.5295 40.0101 41.0555 39.9063 41.5421 39.6957C42.0286 39.4851 42.4643 39.1726 42.8198 38.7793C43.1752 38.3859 43.4421 37.9209 43.6025 37.4155C43.7629 36.9102 43.813 36.3763 43.7494 35.85L42.9244 27.5H37.0869L36.2494 35.85C36.1858 36.3763 36.2359 36.9102 36.3963 37.4155C36.5567 37.9209 36.8236 38.3859 37.179 38.7793C37.5345 39.1726 37.9702 39.4851 38.4567 39.6957C38.9433 39.9063 39.4693 40.0101 39.9994 40V40Z" stroke="#EA6E14" stroke-width="1.5" stroke-linecap="round" stroke-linejoin="round"/>
<path d="M47.8875 40C48.4706 40.012 49.0495 39.8985 49.5849 39.6673C50.1204 39.4361 50.5999 39.0926 50.9911 38.66C51.3822 38.2274 51.6758 37.7157 51.8521 37.1598C52.0283 36.6038 52.083 36.0165 52.0125 35.4375L51.6625 32C51.2125 28.75 49.9625 27.5 46.6875 27.5H42.875L43.75 36.2625C43.8754 37.2787 44.3625 38.2158 45.1224 38.9022C45.8822 39.5885 46.8638 39.9783 47.8875 40V40Z" stroke="#EA6E14" stroke-width="1.5" stroke-linecap="round" stroke-linejoin="round"/>
<path d="M32.0504 40C33.0733 39.98 34.0544 39.5905 34.8126 38.9035C35.5708 38.2166 36.0548 37.2785 36.1754 36.2625L36.4504 33.5L37.0504 27.5H33.2379C29.9629 27.5 28.7129 28.75 28.2629 32L27.9254 35.4375C27.8549 36.0165 27.9096 36.6038 28.0858 37.1598C28.262 37.7157 28.5557 38.2274 28.9468 38.66C29.3379 39.0926 29.8175 39.4361 30.3529 39.6673C30.8884 39.8985 31.4673 40.012 32.0504 40V40Z" stroke="#EA6E14" stroke-width="1.5" stroke-linecap="round" stroke-linejoin="round"/>
<path d="M40 46.25C39.5754 46.1887 39.1423 46.2272 38.7352 46.3625C38.328 46.4979 37.9581 46.7263 37.6547 47.0297C37.3513 47.3331 37.1229 47.703 36.9875 48.1102C36.8522 48.5173 36.8137 48.9504 36.875 49.375V52.5H43.125V49.375C43.1864 48.9504 43.1479 48.5173 43.0126 48.1102C42.8772 47.703 42.6488 47.3331 42.3454 47.0297C42.042 46.7263 41.6721 46.4979 41.2649 46.3625C40.8578 46.2272 40.4247 46.1887 40 46.25V46.25Z" stroke="#EA6E14" stroke-width="1.5" stroke-linecap="round" stroke-linejoin="round"/>
</svg>
