<svg width="80" height="80" viewBox="0 0 80 80" fill="none" xmlns="http://www.w3.org/2000/svg">
<circle cx="40" cy="40" r="40" fill="#1C1B1B"/>
<path d="M48.2875 33.9382C48.3272 34.804 48.2727 35.6716 48.125 36.5257L47.2125 42.3882C46.4375 47.2757 44.175 48.9257 39.2875 48.1632L33.425 47.2382C32.0234 47.0839 30.6762 46.6091 29.4875 45.8507C27.675 44.5882 27.15 42.5132 27.65 39.3132L28.575 33.4507C29.3462 28.5632 31.6125 26.9132 36.5 27.6757L42.3625 28.6007C46.2875 29.2132 48.125 30.8132 48.2875 33.9382Z" stroke="#DBFF00" stroke-width="1.5" stroke-linecap="round" stroke-linejoin="round"/>
<path d="M50.6248 41.8375L48.7498 47.475C47.1873 52.175 44.6873 53.425 39.9873 51.8625L34.3498 49.9875C31.5123 49.05 29.9373 47.75 29.4873 45.85C30.676 46.6084 32.0232 47.0832 33.4248 47.2375L39.2873 48.1625C44.1748 48.925 46.4373 47.275 47.2123 42.3875L48.1248 36.525C48.2725 35.6709 48.327 34.8033 48.2873 33.9375C51.2748 35.525 51.9248 37.925 50.6248 41.8375Z" stroke="#DBFF00" stroke-width="1.5" stroke-linecap="round" stroke-linejoin="round"/>
<path d="M37.475 34.05C37.475 34.4802 37.3474 34.9007 37.1084 35.2584C36.8695 35.616 36.5298 35.8948 36.1323 36.0594C35.7349 36.2241 35.2976 36.2671 34.8757 36.1832C34.4538 36.0993 34.0662 35.8921 33.762 35.588C33.4579 35.2838 33.2507 34.8962 33.1668 34.4743C33.0829 34.0524 33.1259 33.6151 33.2906 33.2177C33.4552 32.8202 33.734 32.4805 34.0916 32.2416C34.4493 32.0026 34.8698 31.875 35.3 31.875C35.8768 31.875 36.4301 32.1042 36.838 32.512C37.2458 32.9199 37.475 33.4732 37.475 34.05V34.05Z" stroke="#DBFF00" stroke-width="1.5" stroke-linecap="round" stroke-linejoin="round"/>
</svg>
