<svg width="80" height="80" viewBox="0 0 80 80" fill="none" xmlns="http://www.w3.org/2000/svg">
<circle cx="40" cy="40" r="40" fill="#1C1B1B"/>
<path d="M51.3502 35.725V44.275C51.3483 44.9654 51.1662 45.6434 50.822 46.2418C50.4778 46.8403 49.9835 47.3386 49.3877 47.6875L41.9627 51.975C41.3636 52.319 40.6848 52.5 39.994 52.5C39.3031 52.5 38.6243 52.319 38.0252 51.975L30.6002 47.6875C30.0024 47.3409 29.5064 46.8431 29.1619 46.2441C28.8174 45.6451 28.6366 44.966 28.6377 44.275V35.725C28.6396 35.0346 28.8217 34.3567 29.1659 33.7582C29.5101 33.1597 30.0044 32.6614 30.6002 32.3125L38.0252 28.025C38.6243 27.681 39.3031 27.5 39.994 27.5C40.6848 27.5 41.3636 27.681 41.9627 28.025L49.3877 32.3125C49.9845 32.6603 50.4797 33.1583 50.824 33.7571C51.1683 34.3558 51.3498 35.0343 51.3502 35.725V35.725Z" stroke="#FF0000" stroke-width="1.5" stroke-linecap="round" stroke-linejoin="round"/>
<path d="M42.9129 35.8373C42.9129 36.4133 42.7421 36.9764 42.422 37.4554C42.102 37.9344 41.6471 38.3077 41.115 38.5281C40.5828 38.7485 39.9972 38.8062 39.4322 38.6938C38.8672 38.5815 38.3483 38.3041 37.9409 37.8968C37.5336 37.4894 37.2562 36.9705 37.1439 36.4055C37.0315 35.8405 37.0892 35.2549 37.3096 34.7227C37.53 34.1905 37.9033 33.7357 38.3823 33.4156C38.8613 33.0956 39.4244 32.9248 40.0004 32.9248C40.7728 32.9248 41.5136 33.2317 42.0598 33.7779C42.606 34.3241 42.9129 35.0649 42.9129 35.8373Z" stroke="#FF0000" stroke-width="1.5" stroke-linecap="round" stroke-linejoin="round"/>
<path d="M45 45.824C45 43.574 42.7625 41.749 40 41.749C37.2375 41.749 35 43.574 35 45.824" stroke="#FF0000" stroke-width="1.5" stroke-linecap="round" stroke-linejoin="round"/>
</svg>
