<svg width="80" height="80" viewBox="0 0 80 80" fill="none" xmlns="http://www.w3.org/2000/svg">
<circle cx="40" cy="40" r="40" fill="#1C1B1B"/>
<path d="M36.45 38.5872C36.3128 38.5747 36.1747 38.5747 36.0375 38.5872C34.5828 38.5331 33.2073 37.9103 32.207 36.8527C31.2067 35.7951 30.6614 34.3871 30.6885 32.9316C30.7155 31.4761 31.3126 30.0894 32.3515 29.0696C33.3904 28.0498 34.788 27.4785 36.2438 27.4785C37.6995 27.4785 39.0971 28.0498 40.136 29.0696C41.1749 30.0894 41.772 31.4761 41.799 32.9316C41.8261 34.3871 41.2808 35.7951 40.2805 36.8527C39.2802 37.9103 37.9047 38.5331 36.45 38.5872Z" stroke="#68D1FD" stroke-width="1.5" stroke-linecap="round" stroke-linejoin="round"/>
<path d="M45.5131 30C46.6734 30 47.7862 30.4609 48.6067 31.2814C49.4271 32.1019 49.8881 33.2147 49.8881 34.375C49.8889 35.5077 49.4503 36.5966 48.6647 37.4125C47.879 38.2285 46.8075 38.7079 45.6756 38.75C45.5676 38.7375 45.4586 38.7375 45.3506 38.75" stroke="#68D1FD" stroke-width="1.5" stroke-linecap="round" stroke-linejoin="round"/>
<path d="M30.1994 43.201C27.1744 45.226 27.1744 48.526 30.1994 50.5385C32.091 51.6674 34.2528 52.2635 36.4557 52.2635C38.6585 52.2635 40.8203 51.6674 42.7119 50.5385C45.7369 48.5135 45.7369 45.2135 42.7119 43.201C40.8183 42.078 38.6573 41.4854 36.4557 41.4854C34.2541 41.4854 32.0931 42.078 30.1994 43.201V43.201Z" stroke="#68D1FD" stroke-width="1.5" stroke-linecap="round" stroke-linejoin="round"/>
<path d="M47.9248 50C48.8126 49.8254 49.6498 49.4537 50.3748 48.9125C50.8231 48.6263 51.1921 48.2318 51.4477 47.7653C51.7033 47.2989 51.8373 46.7756 51.8373 46.2437C51.8373 45.7119 51.7033 45.1886 51.4477 44.7222C51.1921 44.2557 50.8231 43.8612 50.3748 43.575C49.6569 43.048 48.8342 42.6814 47.9623 42.5" stroke="#68D1FD" stroke-width="1.5" stroke-linecap="round" stroke-linejoin="round"/>
</svg>
