<svg width="80" height="80" viewBox="0 0 80 80" fill="none" xmlns="http://www.w3.org/2000/svg">
<circle cx="40" cy="40" r="40" fill="#1C1B1B"/>
<path d="M52.0877 42.875L51.5877 49.125C51.4002 51.0375 51.2502 52.5 47.8627 52.5H32.1377C28.7502 52.5 28.6002 51.0375 28.4127 49.125L27.9127 42.875C27.8161 41.8915 28.1077 40.9091 28.7252 40.1375L28.7502 40.1125C29.1001 39.6853 29.5408 39.3413 30.0403 39.1056C30.5397 38.8699 31.0854 38.7485 31.6377 38.75H48.3627C48.9089 38.7483 49.4487 38.8672 49.9436 39.0985C50.4384 39.3297 50.8761 39.6674 51.2252 40.0875C51.2377 40.1 51.2502 40.1125 51.2502 40.125C51.5683 40.503 51.8066 40.9416 51.9505 41.4143C52.0945 41.8869 52.1411 42.3838 52.0877 42.875Z" stroke="#06F21E" stroke-width="1.5"/>
<path d="M29.375 39.2874V32.8499C29.375 28.5999 30.4375 27.5374 34.6875 27.5374H36.275C36.7791 27.4678 37.2924 27.5523 37.7475 27.7798C38.2026 28.0074 38.5783 28.3674 38.825 28.8124L40.4125 30.9374C40.5779 31.2332 40.8285 31.4724 41.1317 31.624C41.4348 31.7756 41.7766 31.8325 42.1125 31.7874H45.3C49.55 31.7874 50.6125 32.8499 50.6125 37.0999V39.3374" stroke="#06F21E" stroke-width="1.5" stroke-linecap="round" stroke-linejoin="round"/>
<path d="M36.7871 46.25H43.2121" stroke="#06F21E" stroke-width="1.5" stroke-linecap="round" stroke-linejoin="round"/>
</svg>
