<svg width="150" height="150" viewBox="0 0 150 150" fill="none" xmlns="http://www.w3.org/2000/svg">
<path d="M75.0003 12.5C62.6389 12.5 50.5552 16.1656 40.2771 23.0331C29.9991 29.9007 21.9883 39.6619 17.2578 51.0823C12.5273 62.5027 11.2896 75.0693 13.7012 87.1931C16.1128 99.317 22.0653 110.453 30.8061 119.194C39.5469 127.935 50.6833 133.888 62.8071 136.299C74.9309 138.711 87.4976 137.473 98.918 132.742C110.338 128.012 120.1 120.001 126.967 109.723C133.835 99.4451 137.5 87.3613 137.5 75C137.474 58.4321 130.881 42.5503 119.165 30.835C107.45 19.1197 91.5682 12.5264 75.0003 12.5ZM102.188 97.3125C101.774 98.0214 101.181 98.6086 100.467 99.0146C99.7539 99.4207 98.9461 99.6312 98.1253 99.625C97.2825 99.6401 96.4547 99.4005 95.7503 98.9375L76.3753 87.375C73.9002 85.7667 71.8476 83.5875 70.3902 81.0206C68.9328 78.4538 68.1132 75.5745 68.0003 72.625V47C68.0003 45.7568 68.4941 44.5645 69.3732 43.6854C70.2523 42.8064 71.4446 42.3125 72.6878 42.3125C73.931 42.3125 75.1233 42.8064 76.0023 43.6854C76.8814 44.5645 77.3753 45.7568 77.3753 47V72.625C77.4925 73.9483 77.8938 75.2307 78.5517 76.3848C79.2097 77.5389 80.1088 78.5375 81.1878 79.3125L100.563 90.875C101.099 91.1842 101.568 91.5981 101.942 92.0919C102.315 92.5857 102.586 93.1496 102.737 93.7499C102.889 94.3503 102.918 94.975 102.824 95.587C102.729 96.1989 102.513 96.7857 102.188 97.3125Z" fill="#2EBB55"/>
</svg>
